<svg width="127" height="35" viewBox="0 0 127 35" fill="none" xmlns="http://www.w3.org/2000/svg">
<path d="M44.449 17.956L53.602 28H47.635L39.832 18.955V28H35.647V9.1H39.832V17.443L46.555 9.1H52.252L44.449 17.956ZM66.4272 9.1H71.4492L64.6452 21.169V28H60.4602V21.223L53.6562 9.1H58.6782L62.5122 17.011H62.5662L66.4272 9.1ZM88.3888 28H83.1508L78.3988 20.845H77.5888V28H73.4038V9.1H80.9638C85.2028 9.1 87.3898 11.719 87.3898 15.013C87.3898 17.794 85.9048 19.954 82.9888 20.629L88.3888 28ZM80.3428 12.907H77.5888V17.335H80.3428C82.0168 17.335 82.9618 16.687 82.9618 15.121C82.9618 13.717 82.0168 12.907 80.3428 12.907ZM98.9107 8.695C104.527 8.695 108.874 12.637 108.874 18.55C108.874 24.463 104.527 28.405 98.9107 28.405C93.2947 28.405 88.9477 24.463 88.9477 18.55C88.9477 12.637 93.2947 8.695 98.9107 8.695ZM98.9107 13.015C95.8867 13.015 93.5647 15.148 93.5647 18.55C93.5647 21.952 95.8867 24.085 98.9107 24.085C101.935 24.085 104.257 21.952 104.257 18.55C104.257 15.148 101.935 13.015 98.9107 13.015Z" fill="#0C2340"/>
<path fill-rule="evenodd" clip-rule="evenodd" d="M0 18.4V32.2988C0 33.1279 0.672128 33.8 1.50124 33.8H15.4H29.2988C30.1279 33.8 30.8 33.1279 30.8 32.2988V18.4V4.50124C30.8 3.67213 30.1279 3 29.2988 3H15.4H1.50124C0.672129 3 0 3.67213 0 4.50124V18.4ZM17.8316 8.74219C17.8316 8.80727 15.0961 11.0415 11.7526 13.7072L8.11082 16.6108C7.12747 17.3949 5.67368 16.6947 5.67368 15.437V13.5893V10.1256C5.67368 9.29648 6.34581 8.62435 7.17492 8.62435H11.7526C15.0961 8.62435 17.8316 8.67738 17.8316 8.74219ZM25.3965 19.0859V24.7709C25.3965 26.0809 23.836 26.7624 22.875 25.8722L20.1229 23.3226C16.3829 19.8581 14.9331 18.3539 15.1374 18.1507C15.4592 17.8311 25.2225 10.002 25.3289 9.97848C25.3662 9.97017 25.3965 14.0685 25.3965 19.0859ZM13.914 25.1013L14.4149 25.5743C15.4019 26.5063 14.7434 28.1655 13.3859 28.167L11.4149 28.1692L6.96809 28.1742C6.25344 28.175 5.67368 27.5959 5.67368 26.8812V26.8812V26.3105C5.67368 25.8531 5.88221 25.4206 6.24011 25.1358L7.90263 23.8128C9.12869 22.8371 10.2532 22.039 10.4018 22.0395C10.5504 22.0398 12.1309 23.4177 13.914 25.1013Z" fill="#0C2340"/>
<path d="M109.492 9.068H111.412V11H109.492V9.068ZM123.311 11H121.235L120.635 9.296H117.407L116.807 11H114.719L118.031 2.6H119.999L123.311 11ZM119.015 4.664L117.983 7.64H120.059L119.015 4.664ZM123.935 2.6H125.795V11H123.935V2.6Z" fill="#0C2340"/>
</svg>
